<svg width="30" height="26" viewBox="0 0 30 26" fill="none" xmlns="http://www.w3.org/2000/svg">
<path d="M28.8281 0.109375C27.95 0.109375 2.05008 0.109375 1.17188 0.109375C0.524648 0.109375 0 0.634023 0 1.28125V24.7188C0 25.366 0.524648 25.8906 1.17188 25.8906H28.8281C29.4754 25.8906 30 25.366 30 24.7188V1.28125C30 0.634023 29.4754 0.109375 28.8281 0.109375ZM11.4844 2.45312H18.5156V11.309L15.4114 10.1449C15.1463 10.0454 14.8538 10.0454 14.5885 10.1449L11.4844 11.309V2.45312ZM27.6562 23.5469H2.34375V2.45312H9.14062V13C9.14062 13.8171 9.9583 14.3843 10.7239 14.0973L15 12.4937L19.2761 14.0973C20.0413 14.3844 20.8594 13.8174 20.8594 13V2.45312H27.6562V23.5469Z" fill="#0D0D0D"/>
</svg>
