<svg width="337" height="255" viewBox="0 0 337 255" fill="none" xmlns="http://www.w3.org/2000/svg">
<g filter="url(#filter0_d_15_279)">
<path d="M228.74 24.7725L263.23 47.8605" stroke="#F8F8F8" stroke-width="3" stroke-linecap="round"/>
<path d="M282.337 6.23926L304.315 41.4465" stroke="#F8F8F8" stroke-width="3" stroke-linecap="round"/>
<path d="M288.979 62.1191L323.677 84.8935" stroke="#F8F8F8" stroke-width="3" stroke-linecap="round"/>
<path d="M181.806 44.5469L216.503 67.3213" stroke="#F8F8F8" stroke-width="3" stroke-linecap="round"/>
<path d="M60.8154 24.2314L95.5128 47.0058" stroke="#F8F8F8" stroke-width="3" stroke-linecap="round"/>
<path d="M233.328 81.1396L268.025 103.914" stroke="#F8F8F8" stroke-width="3" stroke-linecap="round"/>
<path d="M140.928 22.5957L157.659 60.5777" stroke="#F8F8F8" stroke-width="3" stroke-linecap="round"/>
<path d="M19.9375 2.28027L36.6691 40.2623" stroke="#F8F8F8" stroke-width="3" stroke-linecap="round"/>
<path d="M133.366 89.8984L167.535 113.457" stroke="#F8F8F8" stroke-width="3" stroke-linecap="round"/>
<path d="M12.3755 69.583L46.5452 93.1416" stroke="#F8F8F8" stroke-width="3" stroke-linecap="round"/>
<path d="M296.514 111.931L330.683 135.489" stroke="#F8F8F8" stroke-width="3" stroke-linecap="round"/>
<path d="M155.269 140.182L189.438 163.74" stroke="#F8F8F8" stroke-width="3" stroke-linecap="round"/>
<path d="M34.2783 119.866L68.4481 143.425" stroke="#F8F8F8" stroke-width="3" stroke-linecap="round"/>
<path d="M61.8013 199.247L95.971 222.805" stroke="#F8F8F8" stroke-width="3" stroke-linecap="round"/>
<path d="M206.541 164.096L240.711 187.654" stroke="#F8F8F8" stroke-width="3" stroke-linecap="round"/>
<path d="M85.5508 143.78L119.721 167.339" stroke="#F8F8F8" stroke-width="3" stroke-linecap="round"/>
<path d="M256.732 160.505L298.1 157.138" stroke="#F8F8F8" stroke-width="3" stroke-linecap="round"/>
<path d="M184.469 118.8L225.836 115.433" stroke="#F8F8F8" stroke-width="3" stroke-linecap="round"/>
<path d="M63.479 98.4844L104.846 95.1176" stroke="#F8F8F8" stroke-width="3" stroke-linecap="round"/>
<path d="M296.514 179.65L330.683 203.209" stroke="#F8F8F8" stroke-width="3" stroke-linecap="round"/>
<path d="M145.479 172.621L153.947 213.252" stroke="#F8F8F8" stroke-width="3" stroke-linecap="round"/>
<path d="M24.4888 152.306L32.9568 192.937" stroke="#F8F8F8" stroke-width="3" stroke-linecap="round"/>
<path d="M237.322 204.569L245.79 245.2" stroke="#F8F8F8" stroke-width="3" stroke-linecap="round"/>
<path d="M224.179 43.585C227.643 42.8008 230.83 40.4209 234.203 39.1986C238.063 37.8002 242.38 36.4756 245.842 34.2421C247.243 33.3385 248.588 32.5163 250.054 31.7085C251.726 30.7873 253.128 29.3948 254.805 28.5255C256.008 27.9019 257.304 27.3379 258.669 27.3379" stroke="#F8F8F8" stroke-width="3" stroke-linecap="round"/>
<path d="M270.46 21.5233C273.94 22.2294 277.823 21.3667 281.4 21.6364C285.494 21.9449 289.975 22.5087 294.048 21.8925C295.696 21.6432 297.261 21.4456 298.929 21.3104C300.831 21.1562 302.682 20.462 304.568 20.3572C305.92 20.282 307.334 20.2995 308.578 20.8597" stroke="#F8F8F8" stroke-width="3" stroke-linecap="round"/>
<path d="M284.59 80.972C288.046 80.1564 291.211 77.7477 294.573 76.4949C298.42 75.0616 302.725 73.698 306.167 71.4332C307.559 70.5169 308.898 69.6825 310.356 68.8614C312.019 67.9251 313.409 66.52 315.078 65.6356C316.275 65.0011 317.566 64.4253 318.93 64.4129" stroke="#F8F8F8" stroke-width="3" stroke-linecap="round"/>
<path d="M177.416 63.4002C180.872 62.5846 184.037 60.176 187.399 58.9232C191.246 57.4898 195.551 56.1262 198.993 53.8614C200.385 52.9451 201.724 52.1107 203.182 51.2896C204.845 50.3533 206.235 48.9482 207.904 48.0638C209.101 47.4293 210.392 46.8535 211.757 46.8412" stroke="#F8F8F8" stroke-width="3" stroke-linecap="round"/>
<path d="M56.4256 43.0848C59.8821 42.2692 63.047 39.8605 66.4092 38.6077C70.2559 37.1744 74.5612 35.8108 78.0028 33.5459C79.3952 32.6297 80.7335 31.7953 82.1919 30.9742C83.8549 30.0379 85.2449 28.6328 86.9135 27.7484C88.1105 27.1139 89.4014 26.5381 90.7664 26.5257" stroke="#F8F8F8" stroke-width="3" stroke-linecap="round"/>
<path d="M228.938 99.993C232.394 99.1774 235.559 96.7687 238.921 95.5159C242.768 94.0826 247.073 92.719 250.515 90.4541C251.907 89.5379 253.246 88.7035 254.704 87.8824C256.367 86.9461 257.757 85.541 259.426 84.6566C260.623 84.0221 261.914 83.4463 263.279 83.4339" stroke="#F8F8F8" stroke-width="3" stroke-linecap="round"/>
<path d="M126.99 36.0293C130.334 37.2246 134.3 36.9245 137.803 37.7018C141.811 38.591 146.165 39.7881 150.285 39.7592C151.952 39.7475 153.529 39.7751 155.199 39.8792C157.104 39.9979 159.035 39.5748 160.916 39.74C162.265 39.8585 163.662 40.0775 164.814 40.8094" stroke="#F8F8F8" stroke-width="3" stroke-linecap="round"/>
<path d="M5.99988 15.7138C9.34404 16.9092 13.31 16.6091 16.8128 17.3863C20.8204 18.2755 25.175 19.4726 29.2948 19.4437C30.9616 19.4321 32.5385 19.4597 34.2089 19.5638C36.1137 19.6825 38.0443 19.2593 39.9255 19.4246C41.2751 19.5431 42.6716 19.762 43.8237 20.494" stroke="#F8F8F8" stroke-width="3" stroke-linecap="round"/>
<path d="M128.547 108.647C132.021 107.91 135.24 105.574 138.63 104.398C142.509 103.053 146.844 101.788 150.336 99.6019C151.749 98.7176 153.106 97.9139 154.583 97.1262C156.267 96.228 157.688 94.855 159.376 94.0087C160.588 93.4017 161.891 92.8554 163.256 92.8742" stroke="#F8F8F8" stroke-width="3" stroke-linecap="round"/>
<path d="M7.55707 88.3315C11.0312 87.5948 14.2502 85.2588 17.6401 84.0829C21.5184 82.7376 25.8537 81.4723 29.3459 79.2865C30.7587 78.4022 32.1158 77.5985 33.5925 76.8108C35.2764 75.9126 36.698 74.5395 38.3863 73.6933C39.5974 73.0862 40.9012 72.54 42.266 72.5587" stroke="#F8F8F8" stroke-width="3" stroke-linecap="round"/>
<path d="M291.696 130.679C295.17 129.942 298.389 127.607 301.779 126.431C305.657 125.085 309.992 123.82 313.485 121.634C314.897 120.75 316.254 119.946 317.731 119.158C319.415 118.26 320.837 116.887 322.525 116.041C323.736 115.434 325.04 114.888 326.405 114.906" stroke="#F8F8F8" stroke-width="3" stroke-linecap="round"/>
<path d="M150.451 158.93C153.925 158.193 157.144 155.857 160.534 154.682C164.412 153.336 168.748 152.071 172.24 149.885C173.653 149.001 175.01 148.197 176.487 147.409C178.17 146.511 179.592 145.138 181.28 144.292C182.491 143.685 183.795 143.139 185.16 143.157" stroke="#F8F8F8" stroke-width="3" stroke-linecap="round"/>
<path d="M29.4604 138.615C32.9345 137.878 36.1535 135.542 39.5434 134.366C43.4217 133.021 47.757 131.756 51.2492 129.57C52.6621 128.685 54.0191 127.882 55.4958 127.094C57.1797 126.196 58.6014 124.823 60.2896 123.977C61.5007 123.369 62.8045 122.823 64.1693 122.842" stroke="#F8F8F8" stroke-width="3" stroke-linecap="round"/>
<path d="M56.9828 217.995C60.457 217.258 63.6759 214.922 67.0658 213.747C70.9442 212.401 75.2794 211.136 78.7717 208.95C80.1845 208.066 81.5416 207.262 83.0182 206.474C84.7022 205.576 86.1238 204.203 87.812 203.357C89.0232 202.75 90.3269 202.204 91.6918 202.222" stroke="#F8F8F8" stroke-width="3" stroke-linecap="round"/>
<path d="M201.723 182.844C205.197 182.108 208.416 179.772 211.806 178.596C215.684 177.25 220.02 175.985 223.512 173.799C224.925 172.915 226.282 172.111 227.758 171.323C229.442 170.425 230.864 169.052 232.552 168.206C233.763 167.599 235.067 167.053 236.432 167.071" stroke="#F8F8F8" stroke-width="3" stroke-linecap="round"/>
<path d="M80.7328 162.529C84.207 161.792 87.4259 159.456 90.8158 158.28C94.6942 156.935 99.0294 155.67 102.522 153.484C103.935 152.599 105.292 151.796 106.768 151.008C108.452 150.11 109.874 148.737 111.562 147.891C112.773 147.283 114.077 146.737 115.442 146.756" stroke="#F8F8F8" stroke-width="3" stroke-linecap="round"/>
<path d="M264.86 178.073C267.085 175.305 268.1 171.46 269.982 168.405C272.135 164.909 274.692 161.187 276.015 157.285C276.549 155.707 277.092 154.226 277.738 152.682C278.474 150.921 278.706 148.958 279.479 147.235C280.033 145.999 280.697 144.751 281.766 143.902" stroke="#F8F8F8" stroke-width="3" stroke-linecap="round"/>
<path d="M192.597 136.368C194.821 133.6 195.837 129.755 197.719 126.7C199.872 123.204 202.429 119.482 203.751 115.58C204.286 114.002 204.829 112.521 205.475 110.977C206.211 109.216 206.443 107.253 207.216 105.53C207.77 104.293 208.434 103.046 209.503 102.197" stroke="#F8F8F8" stroke-width="3" stroke-linecap="round"/>
<path d="M71.6059 116.053C73.8307 113.285 74.8463 109.439 76.7281 106.384C78.881 102.889 81.4384 99.1668 82.7607 95.2648C83.2956 93.6862 83.8383 92.2053 84.4838 90.6612C85.2199 88.9003 85.4525 86.9376 86.2248 85.2143C86.7789 83.9781 87.4432 82.7303 88.5121 81.8815" stroke="#F8F8F8" stroke-width="3" stroke-linecap="round"/>
<path d="M291.696 198.399C295.17 197.662 298.389 195.326 301.779 194.15C305.657 192.805 309.992 191.54 313.485 189.354C314.897 188.47 316.254 187.666 317.731 186.878C319.415 185.98 320.837 184.607 322.525 183.761C323.736 183.154 325.04 182.607 326.405 182.626" stroke="#F8F8F8" stroke-width="3" stroke-linecap="round"/>
<path d="M129.053 182.863C132.076 184.728 136.017 185.259 139.282 186.748C143.017 188.451 147.027 190.527 151.063 191.356C152.696 191.691 154.233 192.046 155.845 192.495C157.683 193.007 159.66 192.995 161.466 193.547C162.761 193.944 164.081 194.448 165.056 195.404" stroke="#F8F8F8" stroke-width="3" stroke-linecap="round"/>
<path d="M8.06287 162.548C11.0854 164.412 15.027 164.944 18.2917 166.432C22.0268 168.135 26.0372 170.212 30.073 171.04C31.7057 171.375 33.2424 171.73 34.8547 172.179C36.6931 172.692 38.6696 172.679 40.4753 173.232C41.7707 173.628 43.0911 174.133 44.0659 175.088" stroke="#F8F8F8" stroke-width="3" stroke-linecap="round"/>
<path d="M220.896 214.812C223.918 216.676 227.86 217.207 231.125 218.696C234.86 220.399 238.87 222.475 242.906 223.304C244.539 223.639 246.075 223.994 247.688 224.443C249.526 224.955 251.503 224.943 253.308 225.495C254.604 225.892 255.924 226.397 256.899 227.352" stroke="#F8F8F8" stroke-width="3" stroke-linecap="round"/>
<path d="M248.408 19.9268C246.814 26.6302 245.199 33.3497 243.42 40.006C242.707 42.6719 241.965 45.329 241.345 48.0187C240.978 49.6125 240.888 51.1835 239.857 52.421" stroke="#F8F8F8" stroke-width="3" stroke-linecap="round"/>
<path d="M302.262 9.89075C298.058 15.3498 293.828 20.8149 289.474 26.1548C287.73 28.2934 285.963 30.412 284.294 32.6106C283.305 33.9133 282.578 35.3089 281.13 36.0143" stroke="#F8F8F8" stroke-width="3" stroke-linecap="round"/>
<path d="M308.603 57.0953C307.07 63.813 305.516 70.5469 303.797 77.219C303.108 79.8912 302.39 82.5549 301.795 85.2502C301.442 86.8472 301.366 88.419 300.346 89.6657" stroke="#F8F8F8" stroke-width="3" stroke-linecap="round"/>
<path d="M201.429 39.5231C199.896 46.2407 198.342 52.9746 196.623 59.6467C195.934 62.319 195.216 64.9827 194.621 67.6779C194.268 69.2749 194.192 70.8467 193.172 72.0935" stroke="#F8F8F8" stroke-width="3" stroke-linecap="round"/>
<path d="M80.4385 19.2076C78.9055 25.9253 77.3515 32.6592 75.6325 39.3313C74.9441 42.0035 74.226 44.6672 73.6308 47.3625C73.2781 48.9595 73.2022 50.5313 72.1823 51.778" stroke="#F8F8F8" stroke-width="3" stroke-linecap="round"/>
<path d="M252.951 76.1163C251.418 82.834 249.864 89.5679 248.145 96.24C247.456 98.9122 246.738 101.576 246.143 104.271C245.79 105.868 245.714 107.44 244.694 108.687" stroke="#F8F8F8" stroke-width="3" stroke-linecap="round"/>
<path d="M160.127 29.0521C155.187 33.8557 150.221 38.6615 145.15 43.3258C143.119 45.1939 141.067 47.0387 139.102 48.9768C137.938 50.1252 137.019 51.4029 135.485 51.8944" stroke="#F8F8F8" stroke-width="3" stroke-linecap="round"/>
<path d="M39.1363 8.73665C34.1964 13.5402 29.2301 18.3461 24.159 23.0104C22.1279 24.8784 20.0767 26.7233 18.1114 28.6614C16.9469 29.8097 16.0284 31.0875 14.4944 31.579" stroke="#F8F8F8" stroke-width="3" stroke-linecap="round"/>
<path d="M153.098 85.3233C151.412 92.0042 149.705 98.701 147.835 105.332C147.086 107.988 146.307 110.635 145.651 113.316C145.262 114.904 145.15 116.474 144.102 117.697" stroke="#F8F8F8" stroke-width="3" stroke-linecap="round"/>
<path d="M32.1074 65.0078C30.4219 71.6888 28.715 78.3856 26.8445 85.0168C26.0954 87.6727 25.3169 90.3194 24.6604 93.0004C24.2715 94.5889 24.1598 96.1586 23.1117 97.3818" stroke="#F8F8F8" stroke-width="3" stroke-linecap="round"/>
<path d="M316.246 107.356C314.561 114.036 312.854 120.733 310.983 127.365C310.234 130.02 309.456 132.667 308.799 135.348C308.41 136.937 308.298 138.506 307.25 139.729" stroke="#F8F8F8" stroke-width="3" stroke-linecap="round"/>
<path d="M175.001 135.606C173.316 142.287 171.609 148.984 169.739 155.615C168.989 158.271 168.211 160.918 167.554 163.599C167.166 165.188 167.054 166.757 166.006 167.98" stroke="#F8F8F8" stroke-width="3" stroke-linecap="round"/>
<path d="M54.0112 115.291C52.3257 121.972 50.6188 128.669 48.7483 135.3C47.9992 137.956 47.2207 140.603 46.5642 143.284C46.1753 144.872 46.0636 146.442 45.0155 147.665" stroke="#F8F8F8" stroke-width="3" stroke-linecap="round"/>
<path d="M81.5332 194.671C79.8476 201.352 78.1408 208.049 76.2703 214.68C75.5211 217.336 74.7426 219.982 74.0862 222.663C73.6973 224.252 73.5856 225.822 72.5375 227.045" stroke="#F8F8F8" stroke-width="3" stroke-linecap="round"/>
<path d="M226.273 159.521C224.588 166.202 222.881 172.898 221.011 179.53C220.261 182.185 219.483 184.832 218.826 187.513C218.437 189.102 218.326 190.671 217.278 191.894" stroke="#F8F8F8" stroke-width="3" stroke-linecap="round"/>
<path d="M105.283 139.205C103.597 145.886 101.89 152.583 100.02 159.214C99.2707 161.87 98.4922 164.517 97.8357 167.198C97.4468 168.786 97.3351 170.356 96.287 171.579" stroke="#F8F8F8" stroke-width="3" stroke-linecap="round"/>
<path d="M269.121 144.479C272.042 150.72 274.956 156.987 277.702 163.306C278.801 165.837 279.872 168.379 281.06 170.871C281.763 172.347 282.67 173.634 282.632 175.244" stroke="#F8F8F8" stroke-width="3" stroke-linecap="round"/>
<path d="M196.858 102.774C199.779 109.015 202.693 115.282 205.438 121.601C206.538 124.132 207.609 126.674 208.797 129.166C209.5 130.642 210.407 131.929 210.368 133.539" stroke="#F8F8F8" stroke-width="3" stroke-linecap="round"/>
<path d="M75.868 82.4588C78.7884 88.6996 81.7024 94.9661 84.4481 101.285C85.5478 103.816 86.619 106.359 87.8064 108.85C88.5099 110.327 89.4163 111.613 89.3782 113.224" stroke="#F8F8F8" stroke-width="3" stroke-linecap="round"/>
<path d="M316.246 175.075C314.561 181.756 312.854 188.453 310.983 195.084C310.234 197.74 309.456 200.387 308.799 203.068C308.41 204.656 308.298 206.226 307.25 207.449" stroke="#F8F8F8" stroke-width="3" stroke-linecap="round"/>
<path d="M162.916 182.929C157.085 186.6 151.228 190.268 145.298 193.776C142.923 195.181 140.533 196.559 138.208 198.046C136.83 198.927 135.666 199.986 134.063 200.148" stroke="#F8F8F8" stroke-width="3" stroke-linecap="round"/>
<path d="M41.9259 162.613C36.0952 166.284 30.2382 169.952 24.308 173.46C21.9329 174.865 19.5429 176.243 17.2176 177.73C15.8398 178.611 14.6756 179.67 13.0729 179.832" stroke="#F8F8F8" stroke-width="3" stroke-linecap="round"/>
<path d="M254.759 214.877C248.929 218.548 243.072 222.216 237.141 225.724C234.766 227.129 232.376 228.507 230.051 229.994C228.673 230.875 227.509 231.934 225.906 232.096" stroke="#F8F8F8" stroke-width="3" stroke-linecap="round"/>
</g>
<defs>
<filter id="filter0_d_15_279" x="0.499512" y="0.779785" width="335.684" height="253.921" filterUnits="userSpaceOnUse" color-interpolation-filters="sRGB">
<feFlood flood-opacity="0" result="BackgroundImageFix"/>
<feColorMatrix in="SourceAlpha" type="matrix" values="0 0 0 0 0 0 0 0 0 0 0 0 0 0 0 0 0 0 127 0" result="hardAlpha"/>
<feOffset dy="4"/>
<feGaussianBlur stdDeviation="2"/>
<feComposite in2="hardAlpha" operator="out"/>
<feColorMatrix type="matrix" values="0 0 0 0 0 0 0 0 0 0 0 0 0 0 0 0 0 0 0.25 0"/>
<feBlend mode="normal" in2="BackgroundImageFix" result="effect1_dropShadow_15_279"/>
<feBlend mode="normal" in="SourceGraphic" in2="effect1_dropShadow_15_279" result="shape"/>
</filter>
</defs>
</svg>
