<svg width="30" height="34" viewBox="0 0 30 34" fill="none" xmlns="http://www.w3.org/2000/svg">
<path d="M15.047 18.3287C18.6599 18.3287 21.5994 15.3894 21.5994 11.7765C21.5994 8.16357 18.6599 5.22405 15.047 5.22405C11.4341 5.22405 8.49456 8.16357 8.49456 11.7765C8.49482 15.3894 11.4341 18.3287 15.047 18.3287ZM15.047 7.88056C17.1954 7.88056 18.9429 9.62814 18.9429 11.7765C18.9429 13.9248 17.1954 15.6724 15.047 15.6724C12.8987 15.6724 11.1511 13.9248 11.1511 11.7765C11.1511 9.62814 12.8987 7.88056 15.047 7.88056ZM29.3721 29.0904L25.534 17.1313C29.5135 9.36978 23.8689 0 15.047 0C6.22066 0 0.583121 9.37471 4.55998 17.1313L0.7219 29.0904C0.38053 30.1547 1.4311 31.1404 2.47129 30.7329L6.5654 29.1283L8.63489 33.267C9.12334 34.2436 10.5218 34.2449 11.0107 33.267L15.047 25.1947L19.0833 33.267C19.5715 34.2436 20.9701 34.2449 21.4591 33.267L23.5283 29.1283L27.6227 30.7329C28.6634 31.1407 29.7135 30.1542 29.3721 29.0904ZM15.047 2.65625C20.0757 2.65625 24.167 6.74751 24.167 11.7765C24.167 16.8052 20.0757 20.8965 15.047 20.8965C10.018 20.8965 5.92676 16.8052 5.92676 11.7765C5.92676 6.74751 10.018 2.65625 15.047 2.65625ZM9.82295 29.7031L8.39884 26.8549C8.09145 26.2404 7.36591 25.9615 6.72623 26.2123L4.10577 27.239L6.4785 19.8462C8.18017 21.6521 10.4442 22.9221 12.9881 23.3724L9.82295 29.7031ZM23.3678 26.2123C22.7281 25.9615 22.0026 26.2404 21.6952 26.8549L20.2711 29.7031L17.1059 23.3724C19.6498 22.9221 21.9138 21.6521 23.6155 19.8464L25.9882 27.2393L23.3678 26.2123Z" fill="#0D0D0D"/>
</svg>
