<svg viewBox="0 0 375 394" fill="none" xmlns="http://www.w3.org/2000/svg"><g opacity=".1" stroke="#F8F8F8" stroke-width="4" stroke-linecap="round"><path d="M298.93 38.492l55.268 36.997m30.62-66.696l35.218 56.418M223.721 70.18l55.601 36.494M29.84 37.625l55.6 36.495m220.842 54.698l55.601 36.495M158.215 35.004l26.811 60.864M-35.666 2.449l26.811 60.864m154.953 79.54l54.755 37.752m-248.636-70.306L6.972 148.05m174.224 75.38l54.756 37.751m-248.637-70.306l54.755 37.752m-10.651 89.451l54.755 37.752m177.183-94.079l54.756 37.751M69.476 229.196l54.755 37.752m219.556-10.952l66.289-5.395m-182.088-61.435l66.289-5.395m-260.17-27.16l66.289-5.395m65.113 124.196l13.569 65.109m-207.451-97.663l13.57 65.109m327.486 18.641l13.569 65.109m-34.63-323.079c5.55-1.257 10.657-5.07 16.063-7.03 6.184-2.24 13.103-4.363 18.651-7.942 2.244-1.448 4.401-2.765 6.75-4.06 2.678-1.476 4.926-3.707 7.612-5.1 1.927-1 4.004-1.903 6.192-1.903m18.893-9.318c5.578 1.132 11.799-.25 17.533.182 6.559.494 13.739 1.398 20.267.41 2.641-.4 5.149-.716 7.822-.933 3.048-.247 6.013-1.36 9.035-1.527 2.167-.12 4.432-.093 6.427.805m-210.181 68.169c5.539-1.307 10.61-5.167 15.998-7.175 6.164-2.296 13.063-4.482 18.578-8.11a110.828 110.828 0 016.713-4.122c2.665-1.5 4.892-3.752 7.566-5.17 1.918-1.016 3.987-1.939 6.174-1.958m-248.911-6.02c5.54-1.307 10.61-5.166 15.999-7.174 6.164-2.297 13.063-4.482 18.578-8.111 2.231-1.469 4.376-2.806 6.713-4.122 2.665-1.5 4.892-3.751 7.566-5.169 1.918-1.017 3.987-1.94 6.174-1.959m221.413 117.728c5.539-1.307 10.611-5.167 15.999-7.174 6.164-2.297 13.063-4.482 18.578-8.112 2.231-1.468 4.376-2.805 6.712-4.121 2.665-1.5 4.893-3.752 7.567-5.169 1.918-1.017 3.986-1.939 6.174-1.959M135.881 56.53c5.359 1.916 11.714 1.435 17.327 2.68 6.422 1.425 13.4 3.344 20.002 3.297 2.671-.018 5.198.026 7.875.193 3.052.19 6.146-.488 9.16-.223 2.163.19 4.401.54 6.247 1.713M-58 23.976c5.359 1.915 11.714 1.434 17.327 2.68 6.422 1.425 13.4 3.343 20.002 3.297 2.67-.019 5.198.025 7.874.192 3.053.19 6.146-.488 9.161-.223 2.163.19 4.4.54 6.247 1.714m135.766 141.261c5.567-1.181 10.725-4.924 16.157-6.808 6.215-2.156 13.162-4.184 18.758-7.686a111.674 111.674 0 016.805-3.968c2.698-1.439 4.977-3.639 7.682-4.995 1.941-.973 4.03-1.848 6.217-1.818m-249.501-7.28c5.567-1.18 10.726-4.924 16.158-6.808 6.215-2.156 13.162-4.183 18.758-7.686 2.264-1.417 4.438-2.705 6.805-3.967 2.698-1.439 4.976-3.64 7.681-4.996 1.941-.973 4.03-1.848 6.218-1.818m173.361 138.406c5.567-1.18 10.725-4.924 16.157-6.808 6.215-2.156 13.162-4.183 18.758-7.686 2.264-1.417 4.439-2.705 6.805-3.967 2.699-1.439 4.977-3.64 7.682-4.996 1.941-.973 4.03-1.848 6.217-1.818m-249.501-7.279c5.567-1.181 10.726-4.924 16.158-6.808 6.215-2.156 13.162-4.184 18.758-7.687 2.264-1.417 4.438-2.704 6.805-3.967 2.698-1.439 4.976-3.639 7.682-4.995 1.94-.973 4.03-1.848 6.217-1.818M23.698 348.122c5.567-1.181 10.725-4.924 16.157-6.808 6.215-2.156 13.162-4.184 18.758-7.687 2.264-1.417 4.439-2.705 6.805-3.967 2.699-1.439 4.977-3.639 7.682-4.995 1.94-.973 4.03-1.848 6.217-1.818m176.32-31.053c5.567-1.181 10.725-4.924 16.157-6.808 6.215-2.156 13.162-4.184 18.758-7.686 2.264-1.417 4.439-2.705 6.805-3.968 2.699-1.439 4.977-3.639 7.682-4.995 1.941-.973 4.03-1.848 6.217-1.818m-249.501-7.28c5.568-1.18 10.726-4.924 16.158-6.808 6.215-2.156 13.162-4.183 18.758-7.686 2.264-1.417 4.439-2.705 6.805-3.967 2.698-1.439 4.976-3.64 7.682-4.996 1.94-.973 4.03-1.848 6.217-1.818m239.435 50.185c3.565-4.436 5.192-10.598 8.208-15.493 3.45-5.601 7.548-11.566 9.667-17.819.857-2.529 1.727-4.902 2.761-7.377 1.18-2.821 1.552-5.967 2.79-8.728.888-1.981 1.952-3.981 3.665-5.341m-142.889-12.072c3.565-4.436 5.192-10.598 8.208-15.493 3.45-5.601 7.548-11.566 9.667-17.819.857-2.529 1.726-4.902 2.761-7.377 1.179-2.821 1.552-5.967 2.79-8.728.888-1.981 1.952-3.981 3.665-5.341M47.13 184.764c3.566-4.435 5.193-10.597 8.209-15.493 3.45-5.601 7.548-11.565 9.667-17.818.857-2.53 1.727-4.903 2.76-7.377 1.18-2.822 1.553-5.967 2.79-8.729.889-1.981 1.953-3.98 3.666-5.34m64.965 161.818c4.843 2.988 11.159 3.839 16.391 6.224 5.985 2.729 12.412 6.057 18.879 7.384 2.616.537 5.079 1.106 7.662 1.826 2.946.821 6.113.801 9.007 1.686 2.076.636 4.192 1.444 5.754 2.975m-251.574-52.65c4.843 2.988 11.16 3.839 16.391 6.225 5.985 2.729 12.412 6.056 18.879 7.384 2.616.537 5.079 1.105 7.662 1.825 2.947.821 6.114.801 9.007 1.687 2.076.635 4.192 1.444 5.754 2.975M286.36 343.02c4.844 2.988 11.16 3.839 16.392 6.225 5.985 2.729 12.412 6.056 18.879 7.384 2.616.537 5.079 1.105 7.662 1.825 2.946.821 6.113.801 9.007 1.687 2.076.635 4.192 1.444 5.754 2.975"/><path d="M330.447 30.727c-2.554 10.742-5.142 21.51-7.993 32.176-1.142 4.272-2.332 8.53-3.325 12.84-.588 2.554-.732 5.071-2.385 7.054M255.165 62.13c-2.457 10.764-4.947 21.555-7.702 32.247-1.103 4.282-2.254 8.55-3.207 12.869-.565 2.559-.687 5.078-2.322 7.076M61.284 29.575c-2.457 10.765-4.947 21.555-7.701 32.247-1.104 4.282-2.254 8.55-3.208 12.87-.565 2.559-.687 5.078-2.321 7.076m289.673 39c-2.457 10.764-4.947 21.555-7.702 32.247-1.103 4.282-2.253 8.551-3.207 12.87-.565 2.559-.687 5.077-2.322 7.075M188.981 45.35c-7.916 7.697-15.874 15.398-24.001 22.872-3.254 2.994-6.541 5.95-9.691 9.056-1.866 1.84-3.338 3.887-5.796 4.675m28.224 53.568c-2.701 10.706-5.436 21.438-8.434 32.064-1.2 4.256-2.447 8.497-3.499 12.793-.624 2.546-.803 5.061-2.482 7.021m49.515 28.699c-2.701 10.706-5.437 21.437-8.434 32.063-1.2 4.256-2.448 8.497-3.5 12.794-.623 2.545-.802 5.061-2.482 7.021M18.935 183.543c-2.7 10.706-5.436 21.438-8.433 32.064-1.2 4.256-2.448 8.497-3.5 12.793-.623 2.546-.802 5.061-2.482 7.021m58.519 75.325c-2.701 10.706-5.436 21.438-8.434 32.064-1.2 4.256-2.448 8.497-3.5 12.793-.623 2.546-.802 5.061-2.481 7.021m246.353-108.205c-2.701 10.706-5.436 21.437-8.433 32.063-1.201 4.256-2.448 8.497-3.5 12.793-.623 2.546-.802 5.061-2.482 7.021m-179.466-84.432c-2.701 10.706-5.436 21.437-8.434 32.064-1.2 4.255-2.448 8.497-3.5 12.793-.623 2.545-.802 5.061-2.481 7.021m276.959-43.426c4.68 10.001 9.349 20.042 13.749 30.169 1.762 4.055 3.479 8.129 5.381 12.122 1.128 2.366 2.58 4.428 2.519 7.008M247.841 163.486c4.68 10.001 9.35 20.042 13.75 30.169 1.762 4.055 3.478 8.129 5.381 12.122 1.127 2.366 2.58 4.427 2.519 7.008M53.96 130.931c4.68 10.001 9.35 20.043 13.75 30.169 1.762 4.056 3.478 8.13 5.38 12.123 1.128 2.366 2.58 4.427 2.52 7.007m117.841 111.699c-9.343 5.884-18.729 11.762-28.232 17.383-3.806 2.251-7.636 4.459-11.362 6.842-2.208 1.412-4.073 3.109-6.641 3.368M-.43 259.375c-9.344 5.883-18.73 11.761-28.232 17.382-3.806 2.252-7.636 4.46-11.362 6.843-2.208 1.412-4.074 3.108-6.642 3.368m387.29 56.157c-9.343 5.883-18.729 11.761-28.232 17.382-3.805 2.251-7.635 4.46-11.362 6.842-2.207 1.412-4.073 3.109-6.641 3.368"/></g></svg>