<svg viewBox="0 0 525 394" fill="none" xmlns="http://www.w3.org/2000/svg">
<g opacity="0.1">
<path d="M358.93 38.4919L414.198 75.4893" stroke="#F8F8F8" stroke-width="4" stroke-linecap="round"/>
<path d="M444.818 8.79321L480.036 65.2111" stroke="#F8F8F8" stroke-width="4" stroke-linecap="round"/>
<path d="M455.461 98.3376L511.062 134.833" stroke="#F8F8F8" stroke-width="4" stroke-linecap="round"/>
<path d="M283.721 70.1796L339.322 106.674" stroke="#F8F8F8" stroke-width="4" stroke-linecap="round"/>
<path d="M89.8394 37.6251L145.44 74.1199" stroke="#F8F8F8" stroke-width="4" stroke-linecap="round"/>
<path d="M366.282 128.818L421.883 165.313" stroke="#F8F8F8" stroke-width="4" stroke-linecap="round"/>
<path d="M218.215 35.0035L245.026 95.8679" stroke="#F8F8F8" stroke-width="4" stroke-linecap="round"/>
<path d="M24.3335 2.44901L51.145 63.3134" stroke="#F8F8F8" stroke-width="4" stroke-linecap="round"/>
<path d="M206.098 142.853L260.853 180.605" stroke="#F8F8F8" stroke-width="4" stroke-linecap="round"/>
<path d="M12.2168 110.299L66.9722 148.05" stroke="#F8F8F8" stroke-width="4" stroke-linecap="round"/>
<path d="M467.534 178.159L522.29 215.91" stroke="#F8F8F8" stroke-width="4" stroke-linecap="round"/>
<path d="M241.196 223.43L295.952 261.181" stroke="#F8F8F8" stroke-width="4" stroke-linecap="round"/>
<path d="M47.3149 190.875L102.07 228.627" stroke="#F8F8F8" stroke-width="4" stroke-linecap="round"/>
<path d="M91.4185 318.078L146.174 355.83" stroke="#F8F8F8" stroke-width="4" stroke-linecap="round"/>
<path d="M323.357 261.751L378.113 299.502" stroke="#F8F8F8" stroke-width="4" stroke-linecap="round"/>
<path d="M129.476 229.196L184.231 266.948" stroke="#F8F8F8" stroke-width="4" stroke-linecap="round"/>
<path d="M403.787 255.996L470.076 250.601" stroke="#F8F8F8" stroke-width="4" stroke-linecap="round"/>
<path d="M287.988 189.166L354.277 183.771" stroke="#F8F8F8" stroke-width="4" stroke-linecap="round"/>
<path d="M94.1069 156.611L160.396 151.216" stroke="#F8F8F8" stroke-width="4" stroke-linecap="round"/>
<path d="M467.534 286.676L522.29 324.428" stroke="#F8F8F8" stroke-width="4" stroke-linecap="round"/>
<path d="M225.509 275.412L239.078 340.521" stroke="#F8F8F8" stroke-width="4" stroke-linecap="round"/>
<path d="M31.6274 242.858L45.1971 307.967" stroke="#F8F8F8" stroke-width="4" stroke-linecap="round"/>
<path d="M372.683 326.608L386.252 391.717" stroke="#F8F8F8" stroke-width="4" stroke-linecap="round"/>
<path d="M351.622 68.6378C357.172 67.3811 362.279 63.5674 367.685 61.6088C373.869 59.3679 380.788 57.2454 386.336 53.6663C388.58 52.2183 390.737 50.9007 393.086 49.6062C395.764 48.13 398.012 45.8987 400.698 44.5057C402.625 43.5064 404.702 42.6026 406.89 42.6026" stroke="#F8F8F8" stroke-width="4" stroke-linecap="round"/>
<path d="M425.783 33.2855C431.361 34.4171 437.582 33.0347 443.316 33.4668C449.875 33.9612 457.055 34.8646 463.583 33.8771C466.224 33.4776 468.732 33.1611 471.405 32.9444C474.453 32.6973 477.418 31.5849 480.44 31.417C482.607 31.2965 484.872 31.3245 486.867 32.2221" stroke="#F8F8F8" stroke-width="4" stroke-linecap="round"/>
<path d="M448.426 128.549C453.965 127.242 459.037 123.382 464.425 121.374C470.589 119.078 477.488 116.892 483.003 113.263C485.234 111.795 487.379 110.458 489.716 109.142C492.381 107.642 494.608 105.39 497.282 103.973C499.2 102.956 501.269 102.033 503.456 102.014" stroke="#F8F8F8" stroke-width="4" stroke-linecap="round"/>
<path d="M276.686 100.391C282.225 99.0838 287.296 95.224 292.684 93.2164C298.848 90.9196 305.747 88.7344 311.262 85.1052C313.493 83.6369 315.638 82.2998 317.975 80.9841C320.64 79.4837 322.867 77.2321 325.541 75.8148C327.459 74.7981 329.528 73.8754 331.715 73.8556" stroke="#F8F8F8" stroke-width="4" stroke-linecap="round"/>
<path d="M82.8044 67.8362C88.3432 66.5293 93.4148 62.6695 98.8027 60.6619C104.967 58.3651 111.866 56.1799 117.381 52.5506C119.612 51.0824 121.757 49.7453 124.094 48.4295C126.759 46.9291 128.986 44.6776 131.66 43.2603C133.578 42.2435 135.647 41.3209 137.834 41.3011" stroke="#F8F8F8" stroke-width="4" stroke-linecap="round"/>
<path d="M359.247 159.029C364.786 157.722 369.858 153.862 375.246 151.855C381.41 149.558 388.309 147.373 393.824 143.743C396.055 142.275 398.2 140.938 400.536 139.622C403.201 138.122 405.429 135.87 408.103 134.453C410.021 133.436 412.089 132.514 414.277 132.494" stroke="#F8F8F8" stroke-width="4" stroke-linecap="round"/>
<path d="M195.881 56.5303C201.24 58.4458 207.595 57.9649 213.208 59.2104C219.63 60.6353 226.608 62.5536 233.21 62.5073C235.881 62.4886 238.408 62.5329 241.085 62.6997C244.137 62.8899 247.231 62.2118 250.245 62.4766C252.408 62.6665 254.646 63.0173 256.492 64.1902" stroke="#F8F8F8" stroke-width="4" stroke-linecap="round"/>
<path d="M1.99984 23.9757C7.35869 25.8912 13.7139 25.4104 19.3271 26.6558C25.749 28.0808 32.727 29.9991 39.3289 29.9528C41.9997 29.934 44.5267 29.9784 47.2034 30.1452C50.2557 30.3354 53.3495 29.6573 56.364 29.922C58.5266 30.112 60.7644 30.4628 62.6107 31.6357" stroke="#F8F8F8" stroke-width="4" stroke-linecap="round"/>
<path d="M198.377 172.897C203.944 171.716 209.102 167.973 214.534 166.089C220.749 163.933 227.696 161.905 233.292 158.403C235.556 156.985 237.731 155.698 240.097 154.435C242.795 152.996 245.074 150.796 247.779 149.44C249.72 148.467 251.809 147.592 253.996 147.622" stroke="#F8F8F8" stroke-width="4" stroke-linecap="round"/>
<path d="M4.49516 140.342C10.0623 139.162 15.2205 135.418 20.6527 133.534C26.8675 131.378 33.8145 129.351 39.4107 125.848C41.6747 124.431 43.8493 123.143 46.2156 121.881C48.914 120.442 51.1922 118.241 53.8975 116.885C55.8382 115.912 57.9274 115.037 60.1146 115.067" stroke="#F8F8F8" stroke-width="4" stroke-linecap="round"/>
<path d="M459.814 208.202C465.381 207.021 470.539 203.278 475.972 201.394C482.186 199.238 489.133 197.21 494.73 193.708C496.994 192.291 499.168 191.003 501.534 189.74C504.233 188.301 506.511 186.101 509.216 184.745C511.157 183.772 513.246 182.897 515.433 182.927" stroke="#F8F8F8" stroke-width="4" stroke-linecap="round"/>
<path d="M233.476 253.473C239.043 252.293 244.201 248.549 249.633 246.665C255.848 244.509 262.795 242.482 268.391 238.979C270.655 237.562 272.83 236.274 275.196 235.012C277.895 233.573 280.173 231.372 282.878 230.016C284.819 229.043 286.908 228.168 289.095 228.198" stroke="#F8F8F8" stroke-width="4" stroke-linecap="round"/>
<path d="M39.5943 220.919C45.1614 219.738 50.3196 215.995 55.7518 214.111C61.9666 211.955 68.9137 209.927 74.5099 206.424C76.7739 205.007 78.9484 203.72 81.3147 202.457C84.0132 201.018 86.2913 198.818 88.9966 197.462C90.9374 196.489 93.0266 195.614 95.2137 195.644" stroke="#F8F8F8" stroke-width="4" stroke-linecap="round"/>
<path d="M83.6978 348.122C89.2649 346.941 94.4231 343.198 99.8553 341.314C106.07 339.158 113.017 337.13 118.613 333.627C120.877 332.21 123.052 330.922 125.418 329.66C128.117 328.221 130.395 326.021 133.1 324.665C135.041 323.692 137.13 322.817 139.317 322.847" stroke="#F8F8F8" stroke-width="4" stroke-linecap="round"/>
<path d="M315.637 291.794C321.204 290.613 326.362 286.87 331.794 284.986C338.009 282.83 344.956 280.802 350.552 277.3C352.816 275.883 354.991 274.595 357.357 273.332C360.056 271.893 362.334 269.693 365.039 268.337C366.98 267.364 369.069 266.489 371.256 266.519" stroke="#F8F8F8" stroke-width="4" stroke-linecap="round"/>
<path d="M121.755 259.239C127.323 258.059 132.481 254.315 137.913 252.431C144.128 250.275 151.075 248.248 156.671 244.745C158.935 243.328 161.11 242.04 163.476 240.778C166.174 239.339 168.452 237.138 171.158 235.782C173.098 234.809 175.188 233.934 177.375 233.964" stroke="#F8F8F8" stroke-width="4" stroke-linecap="round"/>
<path d="M416.81 284.149C420.375 279.713 422.002 273.551 425.018 268.656C428.468 263.055 432.566 257.09 434.685 250.837C435.542 248.308 436.412 245.935 437.446 243.46C438.626 240.639 438.998 237.493 440.236 234.732C441.124 232.751 442.188 230.751 443.901 229.391" stroke="#F8F8F8" stroke-width="4" stroke-linecap="round"/>
<path d="M301.012 217.319C304.577 212.883 306.204 206.721 309.22 201.826C312.67 196.225 316.768 190.26 318.887 184.007C319.744 181.478 320.613 179.105 321.648 176.63C322.827 173.809 323.2 170.663 324.438 167.902C325.326 165.921 326.39 163.921 328.103 162.561" stroke="#F8F8F8" stroke-width="4" stroke-linecap="round"/>
<path d="M107.131 184.764C110.696 180.329 112.323 174.167 115.339 169.271C118.789 163.67 122.887 157.706 125.006 151.453C125.863 148.923 126.733 146.55 127.767 144.076C128.947 141.254 129.319 138.109 130.557 135.347C131.445 133.366 132.509 131.367 134.222 130.007" stroke="#F8F8F8" stroke-width="4" stroke-linecap="round"/>
<path d="M459.814 316.72C465.381 315.539 470.539 311.796 475.972 309.911C482.186 307.756 489.133 305.728 494.73 302.225C496.994 300.808 499.168 299.52 501.534 298.258C504.233 296.819 506.511 294.619 509.216 293.262C511.157 292.29 513.246 291.414 515.433 291.444" stroke="#F8F8F8" stroke-width="4" stroke-linecap="round"/>
<path d="M199.187 291.825C204.03 294.813 210.346 295.664 215.578 298.049C221.563 300.778 227.99 304.106 234.457 305.433C237.073 305.97 239.536 306.539 242.119 307.259C245.065 308.08 248.232 308.06 251.126 308.945C253.202 309.581 255.318 310.389 256.88 311.92" stroke="#F8F8F8" stroke-width="4" stroke-linecap="round"/>
<path d="M5.30576 259.27C10.1492 262.258 16.4655 263.109 21.697 265.495C27.6823 268.224 34.1089 271.551 40.576 272.879C43.1924 273.416 45.6549 273.984 48.2384 274.704C51.1845 275.525 54.3516 275.505 57.2452 276.391C59.3211 277.026 61.437 277.835 62.9991 279.366" stroke="#F8F8F8" stroke-width="4" stroke-linecap="round"/>
<path d="M346.36 343.02C351.204 346.008 357.52 346.859 362.752 349.245C368.737 351.974 375.164 355.301 381.631 356.629C384.247 357.166 386.71 357.734 389.293 358.454C392.239 359.275 395.406 359.255 398.3 360.141C400.376 360.776 402.492 361.585 404.054 363.116" stroke="#F8F8F8" stroke-width="4" stroke-linecap="round"/>
<path d="M390.447 30.7269C387.893 41.4689 385.305 52.2366 382.454 62.903C381.312 67.1749 380.122 71.4327 379.129 75.7429C378.541 78.2968 378.397 80.8143 376.744 82.7973" stroke="#F8F8F8" stroke-width="4" stroke-linecap="round"/>
<path d="M476.745 14.6448C470.008 23.3927 463.23 32.1502 456.252 40.7071C453.458 44.1342 450.626 47.5291 447.952 51.0522C446.368 53.1397 445.203 55.3762 442.882 56.5065" stroke="#F8F8F8" stroke-width="4" stroke-linecap="round"/>
<path d="M486.906 90.2875C484.449 101.052 481.959 111.843 479.205 122.535C478.101 126.817 476.951 131.085 475.997 135.404C475.432 137.963 475.31 140.482 473.676 142.48" stroke="#F8F8F8" stroke-width="4" stroke-linecap="round"/>
<path d="M315.165 62.1295C312.708 72.8942 310.218 83.6849 307.463 94.3767C306.36 98.6588 305.209 102.927 304.256 107.246C303.691 109.805 303.569 112.324 301.934 114.322" stroke="#F8F8F8" stroke-width="4" stroke-linecap="round"/>
<path d="M121.284 29.575C118.827 40.3396 116.337 51.1304 113.582 61.8222C112.479 66.1043 111.329 70.3727 110.375 74.6918C109.81 77.2509 109.688 79.7696 108.054 81.7675" stroke="#F8F8F8" stroke-width="4" stroke-linecap="round"/>
<path d="M397.727 120.768C395.27 131.532 392.78 142.323 390.025 153.015C388.922 157.297 387.772 161.566 386.818 165.885C386.253 168.444 386.131 170.962 384.496 172.96" stroke="#F8F8F8" stroke-width="4" stroke-linecap="round"/>
<path d="M248.981 45.3492C241.065 53.0467 233.107 60.7479 224.98 68.2222C221.726 71.2157 218.439 74.1719 215.289 77.2776C213.423 79.1178 211.951 81.1653 209.493 81.953" stroke="#F8F8F8" stroke-width="4" stroke-linecap="round"/>
<path d="M55.0999 12.7946C47.184 20.4922 39.2258 28.1933 31.0995 35.6676C27.8448 38.6611 24.5579 41.6173 21.4085 44.7231C19.5425 46.5632 18.0706 48.6108 15.6125 49.3984" stroke="#F8F8F8" stroke-width="4" stroke-linecap="round"/>
<path d="M237.717 135.521C235.016 146.227 232.281 156.959 229.283 167.585C228.083 171.841 226.836 176.082 225.784 180.378C225.16 182.924 224.981 185.439 223.302 187.399" stroke="#F8F8F8" stroke-width="4" stroke-linecap="round"/>
<path d="M43.8357 102.967C41.1347 113.673 38.3995 124.404 35.4021 135.03C34.2017 139.286 32.9542 143.527 31.9023 147.824C31.279 150.369 31.1 152.884 29.4205 154.845" stroke="#F8F8F8" stroke-width="4" stroke-linecap="round"/>
<path d="M499.155 170.827C496.454 181.533 493.718 192.264 490.721 202.89C489.521 207.146 488.273 211.387 487.221 215.683C486.598 218.229 486.419 220.744 484.739 222.704" stroke="#F8F8F8" stroke-width="4" stroke-linecap="round"/>
<path d="M272.817 216.098C270.116 226.804 267.38 237.535 264.383 248.161C263.183 252.417 261.935 256.658 260.883 260.955C260.26 263.5 260.081 266.016 258.401 267.976" stroke="#F8F8F8" stroke-width="4" stroke-linecap="round"/>
<path d="M78.9353 183.543C76.2343 194.249 73.4991 204.981 70.5018 215.607C69.3013 219.863 68.0538 224.104 67.0019 228.4C66.3786 230.946 66.1996 233.461 64.5201 235.421" stroke="#F8F8F8" stroke-width="4" stroke-linecap="round"/>
<path d="M123.039 310.746C120.338 321.452 117.603 332.184 114.605 342.81C113.405 347.066 112.157 351.307 111.105 355.603C110.482 358.149 110.303 360.664 108.624 362.624" stroke="#F8F8F8" stroke-width="4" stroke-linecap="round"/>
<path d="M354.977 254.419C352.276 265.125 349.541 275.856 346.544 286.482C345.343 290.738 344.096 294.979 343.044 299.275C342.421 301.821 342.242 304.336 340.562 306.296" stroke="#F8F8F8" stroke-width="4" stroke-linecap="round"/>
<path d="M161.096 221.864C158.395 232.57 155.66 243.301 152.662 253.928C151.462 258.183 150.214 262.425 149.163 266.721C148.539 269.266 148.36 271.782 146.681 273.742" stroke="#F8F8F8" stroke-width="4" stroke-linecap="round"/>
<path d="M423.64 230.316C428.32 240.317 432.989 250.358 437.389 260.485C439.151 264.54 440.868 268.614 442.77 272.607C443.898 274.973 445.35 277.035 445.289 279.615" stroke="#F8F8F8" stroke-width="4" stroke-linecap="round"/>
<path d="M307.841 163.486C312.521 173.487 317.191 183.528 321.591 193.655C323.353 197.71 325.069 201.784 326.972 205.777C328.099 208.143 329.552 210.204 329.491 212.785" stroke="#F8F8F8" stroke-width="4" stroke-linecap="round"/>
<path d="M113.96 130.931C118.64 140.932 123.309 150.974 127.709 161.1C129.471 165.156 131.188 169.23 133.091 173.223C134.218 175.589 135.67 177.65 135.609 180.23" stroke="#F8F8F8" stroke-width="4" stroke-linecap="round"/>
<path d="M499.155 279.344C496.454 290.05 493.718 300.781 490.721 311.408C489.521 315.663 488.273 319.905 487.221 324.201C486.598 326.746 486.419 329.262 484.739 331.222" stroke="#F8F8F8" stroke-width="4" stroke-linecap="round"/>
<path d="M253.451 291.929C244.108 297.813 234.722 303.691 225.219 309.312C221.413 311.563 217.583 313.771 213.857 316.154C211.649 317.566 209.784 319.263 207.216 319.522" stroke="#F8F8F8" stroke-width="4" stroke-linecap="round"/>
<path d="M59.5697 259.375C50.2263 265.258 40.8407 271.136 31.3378 276.757C27.5318 279.009 23.702 281.217 19.9757 283.6C17.7679 285.012 15.9024 286.708 13.3342 286.968" stroke="#F8F8F8" stroke-width="4" stroke-linecap="round"/>
<path d="M400.624 343.125C391.281 349.008 381.895 354.886 372.392 360.507C368.587 362.758 364.757 364.967 361.03 367.349C358.823 368.761 356.957 370.458 354.389 370.717" stroke="#F8F8F8" stroke-width="4" stroke-linecap="round"/>
</g>
</svg>
