<svg viewBox="0 0 375 394" fill="none" xmlns="http://www.w3.org/2000/svg">
<g opacity="0.1">
<path d="M298.93 38.4919L354.198 75.4893" stroke="#F8F8F8" stroke-width="4" stroke-linecap="round"/>
<path d="M384.818 8.79321L420.036 65.2111" stroke="#F8F8F8" stroke-width="4" stroke-linecap="round"/>
<path d="M223.721 70.1796L279.322 106.674" stroke="#F8F8F8" stroke-width="4" stroke-linecap="round"/>
<path d="M29.8394 37.6251L85.4402 74.1199" stroke="#F8F8F8" stroke-width="4" stroke-linecap="round"/>
<path d="M306.282 128.818L361.883 165.313" stroke="#F8F8F8" stroke-width="4" stroke-linecap="round"/>
<path d="M158.215 35.0035L185.026 95.8679" stroke="#F8F8F8" stroke-width="4" stroke-linecap="round"/>
<path d="M-35.6665 2.44901L-8.855 63.3134" stroke="#F8F8F8" stroke-width="4" stroke-linecap="round"/>
<path d="M146.098 142.853L200.853 180.605" stroke="#F8F8F8" stroke-width="4" stroke-linecap="round"/>
<path d="M-47.7832 110.299L6.97216 148.05" stroke="#F8F8F8" stroke-width="4" stroke-linecap="round"/>
<path d="M181.196 223.43L235.952 261.181" stroke="#F8F8F8" stroke-width="4" stroke-linecap="round"/>
<path d="M-12.6851 190.875L42.0703 228.627" stroke="#F8F8F8" stroke-width="4" stroke-linecap="round"/>
<path d="M31.4185 318.078L86.1738 355.83" stroke="#F8F8F8" stroke-width="4" stroke-linecap="round"/>
<path d="M263.357 261.751L318.113 299.502" stroke="#F8F8F8" stroke-width="4" stroke-linecap="round"/>
<path d="M69.4761 229.196L124.231 266.948" stroke="#F8F8F8" stroke-width="4" stroke-linecap="round"/>
<path d="M343.787 255.996L410.076 250.601" stroke="#F8F8F8" stroke-width="4" stroke-linecap="round"/>
<path d="M227.988 189.166L294.277 183.771" stroke="#F8F8F8" stroke-width="4" stroke-linecap="round"/>
<path d="M34.1069 156.611L100.396 151.216" stroke="#F8F8F8" stroke-width="4" stroke-linecap="round"/>
<path d="M165.509 275.412L179.078 340.521" stroke="#F8F8F8" stroke-width="4" stroke-linecap="round"/>
<path d="M-28.3726 242.858L-14.8029 307.967" stroke="#F8F8F8" stroke-width="4" stroke-linecap="round"/>
<path d="M312.683 326.608L326.252 391.717" stroke="#F8F8F8" stroke-width="4" stroke-linecap="round"/>
<path d="M291.622 68.6378C297.172 67.3811 302.279 63.5674 307.685 61.6088C313.869 59.3679 320.788 57.2454 326.336 53.6663C328.58 52.2183 330.737 50.9007 333.086 49.6062C335.764 48.13 338.012 45.8987 340.698 44.5057C342.625 43.5064 344.702 42.6026 346.89 42.6026" stroke="#F8F8F8" stroke-width="4" stroke-linecap="round"/>
<path d="M365.783 33.2855C371.361 34.4171 377.582 33.0347 383.316 33.4668C389.875 33.9612 397.055 34.8646 403.583 33.8771C406.224 33.4776 408.732 33.1611 411.405 32.9444C414.453 32.6973 417.418 31.5849 420.44 31.417C422.607 31.2965 424.872 31.3245 426.867 32.2221" stroke="#F8F8F8" stroke-width="4" stroke-linecap="round"/>
<path d="M216.686 100.391C222.225 99.0838 227.296 95.224 232.684 93.2164C238.848 90.9196 245.747 88.7344 251.262 85.1052C253.493 83.6369 255.638 82.2998 257.975 80.9841C260.64 79.4837 262.867 77.2321 265.541 75.8148C267.459 74.7981 269.528 73.8754 271.715 73.8556" stroke="#F8F8F8" stroke-width="4" stroke-linecap="round"/>
<path d="M22.8044 67.8362C28.3432 66.5293 33.4148 62.6695 38.8027 60.6619C44.9668 58.3651 51.8659 56.1799 57.3808 52.5506C59.612 51.0824 61.7567 49.7453 64.0936 48.4295C66.7586 46.9291 68.986 44.6776 71.6597 43.2603C73.5778 42.2435 75.6466 41.3209 77.8338 41.3011" stroke="#F8F8F8" stroke-width="4" stroke-linecap="round"/>
<path d="M299.247 159.029C304.786 157.722 309.858 153.862 315.246 151.855C321.41 149.558 328.309 147.373 333.824 143.743C336.055 142.275 338.2 140.938 340.536 139.622C343.201 138.122 345.429 135.87 348.103 134.453C350.021 133.436 352.089 132.514 354.277 132.494" stroke="#F8F8F8" stroke-width="4" stroke-linecap="round"/>
<path d="M135.881 56.5303C141.24 58.4458 147.595 57.9649 153.208 59.2104C159.63 60.6353 166.608 62.5536 173.21 62.5073C175.881 62.4886 178.408 62.5329 181.085 62.6997C184.137 62.8899 187.231 62.2118 190.245 62.4766C192.408 62.6665 194.646 63.0173 196.492 64.1902" stroke="#F8F8F8" stroke-width="4" stroke-linecap="round"/>
<path d="M-58.0002 23.9757C-52.6413 25.8912 -46.2861 25.4104 -40.6729 26.6558C-34.251 28.0808 -27.273 29.9991 -20.6711 29.9528C-18.0003 29.934 -15.4733 29.9784 -12.7966 30.1452C-9.74426 30.3354 -6.65053 29.6573 -3.636 29.922C-1.47339 30.112 0.764431 30.4628 2.61072 31.6357" stroke="#F8F8F8" stroke-width="4" stroke-linecap="round"/>
<path d="M138.377 172.897C143.944 171.716 149.102 167.973 154.534 166.089C160.749 163.933 167.696 161.905 173.292 158.403C175.556 156.985 177.731 155.698 180.097 154.435C182.795 152.996 185.074 150.796 187.779 149.44C189.72 148.467 191.809 147.592 193.996 147.622" stroke="#F8F8F8" stroke-width="4" stroke-linecap="round"/>
<path d="M-55.5048 140.342C-49.9377 139.162 -44.7795 135.418 -39.3473 133.534C-33.1325 131.378 -26.1855 129.351 -20.5893 125.848C-18.3253 124.431 -16.1507 123.143 -13.7844 121.881C-11.086 120.442 -8.80785 118.241 -6.10254 116.885C-4.16176 115.912 -2.07255 115.037 0.114579 115.067" stroke="#F8F8F8" stroke-width="4" stroke-linecap="round"/>
<path d="M173.476 253.473C179.043 252.293 184.201 248.549 189.633 246.665C195.848 244.509 202.795 242.482 208.391 238.979C210.655 237.562 212.83 236.274 215.196 235.012C217.895 233.573 220.173 231.372 222.878 230.016C224.819 229.043 226.908 228.168 229.095 228.198" stroke="#F8F8F8" stroke-width="4" stroke-linecap="round"/>
<path d="M-20.4057 220.919C-14.8386 219.738 -9.68037 215.995 -4.24822 214.111C1.96662 211.955 8.91367 209.927 14.5099 206.424C16.7739 205.007 18.9484 203.72 21.3147 202.457C24.0132 201.018 26.2913 198.818 28.9966 197.462C30.9374 196.489 33.0266 195.614 35.2137 195.644" stroke="#F8F8F8" stroke-width="4" stroke-linecap="round"/>
<path d="M23.6978 348.122C29.2649 346.941 34.4231 343.198 39.8553 341.314C46.0701 339.158 53.0172 337.13 58.6134 333.627C60.8774 332.21 63.0519 330.922 65.4183 329.66C68.1167 328.221 70.3948 326.021 73.1001 324.665C75.0409 323.692 77.1301 322.817 79.3172 322.847" stroke="#F8F8F8" stroke-width="4" stroke-linecap="round"/>
<path d="M255.637 291.794C261.204 290.613 266.362 286.87 271.794 284.986C278.009 282.83 284.956 280.802 290.552 277.3C292.816 275.883 294.991 274.595 297.357 273.332C300.056 271.893 302.334 269.693 305.039 268.337C306.98 267.364 309.069 266.489 311.256 266.519" stroke="#F8F8F8" stroke-width="4" stroke-linecap="round"/>
<path d="M61.7554 259.239C67.3225 258.059 72.4808 254.315 77.9129 252.431C84.1277 250.275 91.0748 248.248 96.671 244.745C98.935 243.328 101.11 242.04 103.476 240.778C106.174 239.339 108.452 237.138 111.158 235.782C113.098 234.809 115.188 233.934 117.375 233.964" stroke="#F8F8F8" stroke-width="4" stroke-linecap="round"/>
<path d="M356.81 284.149C360.375 279.713 362.002 273.551 365.018 268.656C368.468 263.055 372.566 257.09 374.685 250.837C375.542 248.308 376.412 245.935 377.446 243.46C378.626 240.639 378.998 237.493 380.236 234.732C381.124 232.751 382.188 230.751 383.901 229.391" stroke="#F8F8F8" stroke-width="4" stroke-linecap="round"/>
<path d="M241.012 217.319C244.577 212.883 246.204 206.721 249.22 201.826C252.67 196.225 256.768 190.26 258.887 184.007C259.744 181.478 260.613 179.105 261.648 176.63C262.827 173.809 263.2 170.663 264.438 167.902C265.326 165.921 266.39 163.921 268.103 162.561" stroke="#F8F8F8" stroke-width="4" stroke-linecap="round"/>
<path d="M47.1307 184.764C50.6959 180.329 52.3233 174.167 55.3388 169.271C58.7887 163.67 62.8869 157.706 65.0057 151.453C65.8629 148.923 66.7325 146.55 67.7669 144.076C68.9465 141.254 69.3192 138.109 70.5568 135.347C71.4447 133.366 72.5092 131.367 74.2222 130.007" stroke="#F8F8F8" stroke-width="4" stroke-linecap="round"/>
<path d="M139.187 291.825C144.03 294.813 150.346 295.664 155.578 298.049C161.563 300.778 167.99 304.106 174.457 305.433C177.073 305.97 179.536 306.539 182.119 307.259C185.065 308.08 188.232 308.06 191.126 308.945C193.202 309.581 195.318 310.389 196.88 311.92" stroke="#F8F8F8" stroke-width="4" stroke-linecap="round"/>
<path d="M-54.6942 259.27C-49.8508 262.258 -43.5345 263.109 -38.303 265.495C-32.3177 268.224 -25.8911 271.551 -19.424 272.879C-16.8076 273.416 -14.3451 273.984 -11.7616 274.704C-8.81547 275.525 -5.64836 275.505 -2.75477 276.391C-0.678923 277.026 1.43703 277.835 2.99907 279.366" stroke="#F8F8F8" stroke-width="4" stroke-linecap="round"/>
<path d="M286.36 343.02C291.204 346.008 297.52 346.859 302.752 349.245C308.737 351.974 315.164 355.301 321.631 356.629C324.247 357.166 326.71 357.734 329.293 358.454C332.239 359.275 335.406 359.255 338.3 360.141C340.376 360.776 342.492 361.585 344.054 363.116" stroke="#F8F8F8" stroke-width="4" stroke-linecap="round"/>
<path d="M330.447 30.7269C327.893 41.4689 325.305 52.2366 322.454 62.903C321.312 67.1749 320.122 71.4327 319.129 75.7429C318.541 78.2968 318.397 80.8143 316.744 82.7973" stroke="#F8F8F8" stroke-width="4" stroke-linecap="round"/>
<path d="M255.165 62.1295C252.708 72.8942 250.218 83.6849 247.463 94.3767C246.36 98.6588 245.209 102.927 244.256 107.246C243.691 109.805 243.569 112.324 241.934 114.322" stroke="#F8F8F8" stroke-width="4" stroke-linecap="round"/>
<path d="M61.2837 29.575C58.8272 40.3396 56.3371 51.1304 53.5825 61.8222C52.4792 66.1043 51.3286 70.3727 50.3748 74.6918C49.8097 77.2509 49.688 79.7696 48.0536 81.7675" stroke="#F8F8F8" stroke-width="4" stroke-linecap="round"/>
<path d="M337.727 120.768C335.27 131.532 332.78 142.323 330.025 153.015C328.922 157.297 327.772 161.566 326.818 165.885C326.253 168.444 326.131 170.962 324.496 172.96" stroke="#F8F8F8" stroke-width="4" stroke-linecap="round"/>
<path d="M188.981 45.3492C181.065 53.0467 173.107 60.7479 164.98 68.2222C161.726 71.2157 158.439 74.1719 155.289 77.2776C153.423 79.1178 151.951 81.1653 149.493 81.953" stroke="#F8F8F8" stroke-width="4" stroke-linecap="round"/>
<path d="M177.717 135.521C175.016 146.227 172.281 156.959 169.283 167.585C168.083 171.841 166.836 176.082 165.784 180.378C165.16 182.924 164.981 185.439 163.302 187.399" stroke="#F8F8F8" stroke-width="4" stroke-linecap="round"/>
<path d="M212.817 216.098C210.116 226.804 207.38 237.535 204.383 248.161C203.183 252.417 201.935 256.658 200.883 260.955C200.26 263.5 200.081 266.016 198.401 267.976" stroke="#F8F8F8" stroke-width="4" stroke-linecap="round"/>
<path d="M18.9353 183.543C16.2343 194.249 13.4991 204.981 10.5018 215.607C9.30129 219.863 8.05378 224.104 7.00187 228.4C6.37859 230.946 6.19962 233.461 4.5201 235.421" stroke="#F8F8F8" stroke-width="4" stroke-linecap="round"/>
<path d="M63.0389 310.746C60.3378 321.452 57.6026 332.184 54.6053 342.81C53.4048 347.066 52.1573 351.307 51.1054 355.603C50.4821 358.149 50.3031 360.664 48.6236 362.624" stroke="#F8F8F8" stroke-width="4" stroke-linecap="round"/>
<path d="M294.977 254.419C292.276 265.125 289.541 275.856 286.544 286.482C285.343 290.738 284.096 294.979 283.044 299.275C282.421 301.821 282.242 304.336 280.562 306.296" stroke="#F8F8F8" stroke-width="4" stroke-linecap="round"/>
<path d="M101.096 221.864C98.3949 232.57 95.6597 243.301 92.6624 253.928C91.4619 258.183 90.2144 262.425 89.1625 266.721C88.5392 269.266 88.3603 271.782 86.6807 273.742" stroke="#F8F8F8" stroke-width="4" stroke-linecap="round"/>
<path d="M363.64 230.316C368.32 240.317 372.989 250.358 377.389 260.485C379.151 264.54 380.868 268.614 382.77 272.607C383.898 274.973 385.35 277.035 385.289 279.615" stroke="#F8F8F8" stroke-width="4" stroke-linecap="round"/>
<path d="M247.841 163.486C252.521 173.487 257.191 183.528 261.591 193.655C263.353 197.71 265.069 201.784 266.972 205.777C268.099 208.143 269.552 210.204 269.491 212.785" stroke="#F8F8F8" stroke-width="4" stroke-linecap="round"/>
<path d="M53.96 130.931C58.6399 140.932 63.3093 150.974 67.7093 161.1C69.4715 165.156 71.1879 169.23 73.0907 173.223C74.2181 175.589 75.6705 177.65 75.6095 180.23" stroke="#F8F8F8" stroke-width="4" stroke-linecap="round"/>
<path d="M193.451 291.929C184.108 297.813 174.722 303.691 165.219 309.312C161.413 311.563 157.583 313.771 153.857 316.154C151.649 317.566 149.784 319.263 147.216 319.522" stroke="#F8F8F8" stroke-width="4" stroke-linecap="round"/>
<path d="M-0.43029 259.375C-9.77371 265.258 -19.1593 271.136 -28.6622 276.757C-32.4682 279.009 -36.298 281.217 -40.0243 283.6C-42.2321 285.012 -44.0976 286.708 -46.6658 286.968" stroke="#F8F8F8" stroke-width="4" stroke-linecap="round"/>
<path d="M340.624 343.125C331.281 349.008 321.895 354.886 312.392 360.507C308.587 362.758 304.757 364.967 301.03 367.349C298.823 368.761 296.957 370.458 294.389 370.717" stroke="#F8F8F8" stroke-width="4" stroke-linecap="round"/>
</g>
</svg>
